<?xml version="1.0" standalone="no"?>
<!DOCTYPE svg PUBLIC "-//W3C//DTD SVG 1.1//EN" "http://www.w3.org/Graphics/SVG/1.1/DTD/svg11.dtd" >
<svg xmlns="http://www.w3.org/2000/svg">
<metadata>
<json>
<![CDATA[
{
	"fontFamily": "xlf",
	"majorVersion": 1,
	"minorVersion": 0,
	"version": "Version 1.0",
	"fontId": "xlf",
	"psName": "xlf",
	"subFamily": "Regular",
	"fullName": "xlf",
	"description": "Font generated by IcoMoon."
}
]]>
</json>
</metadata>
<defs>
<font id="xlf" horiz-adv-x="1024">
<font-face units-per-em="1024" ascent="960" descent="-64" />
<missing-glyph horiz-adv-x="1024" />
<glyph unicode="&#x20;" horiz-adv-x="512" d="" />
<glyph unicode="&#xe900;" glyph-name="app" data-tags="app" d="M128 640h192v192h-192v-192zM416 64h192v192h-192v-192zM128 64h192v192h-192v-192zM128 352h192v192h-192v-192zM416 352h192v192h-192v-192zM704 832v-192h192v192h-192zM416 640h192v192h-192v-192zM704 352h192v192h-192v-192zM704 64h192v192h-192v-192z" />
<glyph unicode="&#xe901;" glyph-name="dictionary-locked" data-tags="dictionary-locked" d="M274.304 857.6c2.304 0 4.992 0 7.296 0h38.4v-286.72l96 61.44 96-61.44v286.72h230.4c42.24 0 76.8-36.454 76.8-81.92v-655.36c0-43.008-36.48-81.92-76.8-81.92h-460.8c-40.32 0-76.8 38.912-76.8 81.92v655.36c0 40.96 31.872 78.234 69.504 81.92zM622.368 379.733h-18.416v34.133c0 22.632-9.701 44.337-26.97 60.34s-40.689 24.994-65.11 24.994c-50.854 0-92.080-38.205-92.080-85.333v-34.133h-18.416c-20.258 0-36.832-15.189-36.832-34.133v-170.667c0-18.851 16.49-34.133 36.832-34.133h220.992c20.342 0 36.832 15.282 36.832 34.133v170.667c0 18.851-16.49 34.133-36.832 34.133zM511.872 226.133c-20.342 0-36.832 15.282-36.832 34.133s16.49 34.133 36.832 34.133c20.258 0 36.832-15.189 36.832-34.133 0-18.851-16.49-34.133-36.832-34.133zM511.872 465.067c30.513 0 55.248-22.923 55.248-51.2v-34.133h-110.496v34.133c0 28.277 24.735 51.2 55.248 51.2z" />
<glyph unicode="&#xe902;" glyph-name="abort" data-tags="abort" d="M512 857.6c-226.216 0-409.6-183.384-409.6-409.6 0-108.633 43.154-212.816 119.969-289.631s180.998-119.969 289.631-119.969c108.633 0 212.816 43.154 289.631 119.969s119.969 180.998 119.969 289.631c0 108.633-43.154 212.816-119.969 289.631s-180.998 119.969-289.631 119.969zM512 775.68c180.634 0 327.68-147.046 327.68-327.68s-147.046-327.68-327.68-327.68c-180.634 0-327.68 147.046-327.68 327.68s147.046 327.68 327.68 327.68zM389.12 570.88v-245.76h245.76v245.76z" />
<glyph unicode="&#xe903;" glyph-name="dictionary" data-tags="dictionary" d="M274.304 857.6c-37.632-3.686-69.504-40.96-69.504-81.92v-655.36c0-43.008 36.48-81.92 76.8-81.92h460.8c40.32 0 76.8 38.912 76.8 81.92v655.36c0 45.466-34.56 81.92-76.8 81.92h-230.4v-286.72l-96 61.44-96-61.44v286.72h-38.4c-2.304 0-4.992 0-7.296 0zM512 366.080v-40.96h38.4v40.96h-38.4z" />
<glyph unicode="&#xe904;" glyph-name="activity" data-tags="activity" d="M504.273 236.312c7.57-16.562 31.396-15.67 37.706 1.411l143.342 387.993 74.984-195.127c3.030-7.885 10.604-13.088 19.051-13.088h121.835c11.272 0 20.409 9.137 20.409 20.409s-9.137 20.409-20.409 20.409h-107.814l-89.381 232.593c-6.753 17.573-31.671 17.411-38.195-0.248l-144.967-392.394-136.379 298.375c-6.559 14.35-26.224 16.148-35.277 3.227l-99.173-141.553h-127.195c-11.272 0-20.409-9.137-20.409-20.409s9.137-20.409 20.409-20.409h137.816c6.657 0 12.895 3.246 16.715 8.698l84.811 121.053 142.122-310.941z" />
<glyph unicode="&#xe905;" d="M796.16 524.8c-26.88 130.56-142.080 230.4-284.16 230.4-111.36 0-207.36-61.44-253.44-153.6-119.040-15.36-207.36-111.36-207.36-230.4 0-126.72 103.68-230.4 230.4-230.4h499.2c107.52 0 192 84.48 192 192 0 99.84-80.64 184.32-176.64 192v0z" />
<glyph unicode="&#xe906;" d="M455.628 704h438.562c15.138 0 27.41-12.272 27.41-27.41v-109.64c0-15.138-12.272-27.41-27.41-27.41h-438.562c-15.138 0-27.41 12.272-27.41 27.41v109.64c0 15.138 12.272 27.41 27.41 27.41zM455.628 484.719h438.562c15.138 0 27.41-12.272 27.41-27.41v-109.64c0-15.138-12.272-27.41-27.41-27.41h-438.562c-15.138 0-27.41 12.272-27.41 27.41v109.64c0 15.138 12.272 27.41 27.41 27.41zM455.628 265.438h438.562c15.138 0 27.41-12.272 27.41-27.41v-109.64c0-15.138-12.272-27.41-27.41-27.41h-438.562c-15.138 0-27.41 12.272-27.41 27.41v109.64c0 15.138 12.272 27.41 27.41 27.41zM592.679 594.36h27.41v54.82h-27.41v-54.82zM592.679 375.079h27.41v54.82h-27.41v-54.82zM592.679 155.798h27.41v54.82h-27.41v-54.82zM483.038 649.18v-54.82h54.82v54.82h-54.82zM483.038 429.899v-54.82h54.82v54.82h-54.82zM483.038 210.618v-54.82h54.82v54.82h-54.82z" />
<glyph unicode="&#xe907;" glyph-name="add" data-tags="add" d="M870.4 396.8h-307.2v-307.2h-102.4v307.2h-307.2v102.4h307.2v307.2h102.4v-307.2h307.2z" />
<glyph unicode="&#xe908;" d="M796.16 524.8c-26.88 130.56-142.080 230.4-284.16 230.4-111.36 0-207.36-61.44-253.44-153.6-119.040-15.36-207.36-111.36-207.36-230.4 0-126.72 103.68-230.4 230.4-230.4h499.2c107.52 0 192 84.48 192 192 0 99.84-80.64 184.32-176.64 192v0z" />
<glyph unicode="&#xe909;" d="M614.4 550.4v-102.4h102.4v102.4h-102.4zM768 550.4v-102.4h102.4v102.4h-102.4zM768 396.8v-102.4h102.4v102.4h-102.4zM768 243.2v-102.4h102.4v102.4h-102.4zM716.8 140.8v102.4h-102.4v-102.4h102.4zM563.2 140.8v102.4h-102.4v-102.4h102.4zM563.2 294.4v102.4h-102.4v-102.4h102.4zM563.2 448v102.4h-102.4v-102.4h102.4zM614.4 294.4h102.4v102.4h-102.4v-102.4zM460.8 601.6h409.6c28.277 0 51.2-22.923 51.2-51.2v-409.6c0-28.277-22.923-51.2-51.2-51.2h-409.6c-27.648 0-51.2 23.040-51.2 51.2v409.6c0 28.277 22.923 51.2 51.2 51.2z" />
<glyph unicode="&#xe90a;" glyph-name="archive" data-tags="archive" d="M898.844 757.476l-63.716 77.369c-9.102 13.653-27.307 22.756-50.062 22.756h-546.133c-22.756 0-40.96-9.102-54.613-22.756l-59.164-77.369c-13.653-18.204-22.756-36.409-22.756-59.164v-568.889c0-50.062 40.96-91.022 91.022-91.022h637.156c50.062 0 91.022 40.96 91.022 91.022v568.889c0 22.756-9.102 40.96-22.756 59.164v0zM512 197.689l-250.311 250.311h159.289v91.022h182.044v-91.022h159.289l-250.311-250.311zM197.973 730.169l36.409 81.92h546.133l40.96-81.92h-623.502z" />
<glyph unicode="&#xe90b;" glyph-name="package" data-tags="package" d="M870.4 263.68c0-15.565-8.363-29.082-21.106-36.045l-314.596-181.862c-6.372-4.915-14.336-7.373-22.699-7.373s-16.327 2.458-22.699 7.373l-314.596 181.862c-12.743 6.963-21.106 20.48-21.106 36.045v368.64c0 15.565 8.363 29.082 21.106 36.045l314.596 181.862c6.372 4.915 14.336 7.373 22.699 7.373s16.327-2.458 22.699-7.373l314.596-181.862c12.743-6.963 21.106-20.48 21.106-36.045v-368.64zM512 769.536l-75.264-43.827 234.553-138.854 78.052 45.466-237.34 137.216zM274.66 632.32l237.34-137.216 78.052 45.056-234.155 139.264-81.237-47.104zM233.244 287.846l238.933-138.445v274.842l-238.933 138.035v-274.432zM790.756 287.846v274.432l-238.933-138.035v-274.842l238.933 138.445z" />
<glyph unicode="&#xe90c;" glyph-name="arrow-down" data-tags="arrow-down" d="M819.2 601.6l-307.2-307.2-307.2 307.2z" />
<glyph unicode="&#xe90d;" glyph-name="satellite-group" data-tags="satellite-group" d="M309.541 857.6l110.397-110.592-41.35-41.35-41.35 41.35-27.697-27.697 45.446-45.251-22.626-22.821 8.777-8.972c18.139 8.387 40.375 5.266 55.198-9.752l-68.852-68.852c-15.019 14.824-18.139 37.059-9.752 55.198l-8.972 8.777-22.821-22.626-45.251 45.446-27.697-27.697 41.35-41.35-41.35-41.35-110.592 110.397 41.74 41.35 41.35-41.35 27.502 27.502-55.198 55.198c-15.214 15.214-15.214 39.985 0 55.198l13.848 13.848c15.214 15.214 39.985 15.214 55.198 0l55.198-55.198 27.502 27.502-41.35 41.35 41.35 41.74zM433.981 604.038c0-43.089-34.93-78.019-78.019-78.019v39.010c21.544 0 39.010 17.465 39.010 39.010h39.010zM512 604.038c0-86.177-69.861-156.038-156.038-156.038v39.010c64.633 0 117.029 52.395 117.029 117.029h39.010zM411.941 448l110.397-110.592-41.35-41.35-41.35 41.35-27.697-27.697 45.446-45.251-22.626-22.821 8.777-8.972c18.139 8.387 40.375 5.266 55.198-9.752l-68.852-68.852c-15.019 14.824-18.139 37.059-9.752 55.198l-8.972 8.777-22.821-22.626-45.251 45.446-27.697-27.697 41.35-41.35-41.35-41.35-110.592 110.397 41.74 41.35 41.35-41.35 27.502 27.502-55.198 55.198c-15.214 15.214-15.214 39.985 0 55.198l13.848 13.848c15.214 15.214 39.985 15.214 55.198 0l55.198-55.198 27.502 27.502-41.35 41.35 41.35 41.74zM536.381 194.438c0-43.089-34.93-78.019-78.019-78.019v39.010c21.544 0 39.010 17.465 39.010 39.010h39.010zM614.4 194.438c0-86.177-69.861-156.038-156.038-156.038v39.010c64.633 0 117.029 52.395 117.029 117.029h39.010zM719.141 755.2l110.397-110.592-41.35-41.35-41.35 41.35-27.697-27.697 45.446-45.251-22.626-22.821 8.777-8.972c18.139 8.387 40.375 5.266 55.198-9.752l-68.852-68.852c-15.019 14.824-18.139 37.059-9.752 55.198l-8.972 8.777-22.821-22.626-45.251 45.446-27.697-27.697 41.35-41.35-41.35-41.35-110.592 110.397 41.74 41.35 41.35-41.35 27.502 27.502-55.198 55.198c-15.214 15.214-15.214 39.985 0 55.198l13.848 13.848c15.214 15.214 39.985 15.214 55.198 0l55.198-55.198 27.502 27.502-41.35 41.35 41.35 41.74zM843.581 501.638c0-43.089-34.93-78.019-78.019-78.019v39.010c21.544 0 39.010 17.465 39.010 39.010h39.010zM921.6 501.638c0-86.177-69.861-156.038-156.038-156.038v39.010c64.633 0 117.029 52.395 117.029 117.029h39.010z" />
<glyph unicode="&#xe90e;" glyph-name="arrow-right" data-tags="arrow-right" d="M358.4 755.2l307.2-307.2-307.2-307.2z" />
<glyph unicode="&#xe90f;" glyph-name="satellite" data-tags="satellite" d="M516.681 857.6l220.794-221.184-82.7-82.7-82.7 82.7-55.394-55.394 90.892-90.502-45.251-45.641 17.554-17.944c36.279 16.774 80.75 10.533 110.397-19.505l-137.704-137.704c-30.037 29.647-36.279 74.118-19.505 110.397l-17.944 17.554-45.641-45.251-90.502 90.892-55.394-55.394 82.7-82.7-82.7-82.7-221.184 220.794 83.48 82.7 82.7-82.7 55.003 55.003-110.397 110.397c-30.427 30.427-30.427 79.97 0 110.397l27.697 27.697c30.427 30.427 79.97 30.427 110.397 0l110.397-110.397 55.003 55.003-82.7 82.7 82.7 83.48zM765.562 350.476c0-86.177-69.861-156.038-156.038-156.038v78.019c43.089 0 78.019 34.93 78.019 78.019h78.019zM921.6 350.476c0-172.355-139.721-312.076-312.076-312.076v78.019c129.266 0 234.057 104.791 234.057 234.057h78.019z" />
<glyph unicode="&#xe910;" glyph-name="arrow-up" data-tags="arrow-up" d="M819.2 294.4l-307.2 307.2-307.2-307.2z" />
<glyph unicode="&#xe911;" glyph-name="attachment" data-tags="attachment" d="M660.945 671.418v-428.218c0-82.26-66.685-148.945-148.945-148.945s-148.945 66.685-148.945 148.945v465.455c0 51.413 41.678 93.091 93.091 93.091s93.091-41.678 93.091-93.091v-390.982c0-20.565-16.671-37.236-37.236-37.236s-37.236 16.671-37.236 37.236v353.745h-55.855v-353.745c0-51.413 41.678-93.091 93.091-93.091s93.091 41.678 93.091 93.091v390.982c0 82.26-66.685 148.945-148.945 148.945s-148.945-66.685-148.945-148.945v-465.455c0-113.108 91.692-204.8 204.8-204.8s204.8 91.692 204.8 204.8v428.218h-55.855z" />
<glyph unicode="&#xe912;" glyph-name="back" data-tags="back" d="M921.6 476.444h-644.892l163.157 163.157-64.398 64.398-273.067-273.067 273.067-273.067 64.398 64.398-163.157 163.157h644.892z" />
<glyph unicode="&#xe915;" glyph-name="block" data-tags="block" d="M880.64 263.68c0-15.565-8.602-29.082-21.709-36.045l-323.584-181.862c-6.554-4.915-14.746-7.373-23.347-7.373s-16.794 2.458-23.347 7.373l-323.584 181.862c-13.107 6.963-21.709 20.48-21.709 36.045v368.64c0 15.565 8.602 29.082 21.709 36.045l323.584 181.862c6.554 4.915 14.746 7.373 23.347 7.373s16.794-2.458 23.347-7.373l323.584-181.862c13.107-6.963 21.709-20.48 21.709-36.045v-368.64zM512 769.536l-244.122-137.216 244.122-137.216 244.122 137.216-244.122 137.216zM798.72 287.846v274.432l-245.76-138.035v-274.842l245.76 138.445z" />
<glyph unicode="&#xe916;" glyph-name="calendar" data-tags="calendar" d="M711.111 407.040h-199.111v-204.8h199.111v204.8zM671.289 857.6v-81.92h-318.578v81.92h-79.644v-81.92h-39.822c-43.804 0-79.644-36.864-79.644-81.92v-573.44c0-45.056 35.84-81.92 79.644-81.92h557.511c43.804 0 79.644 36.864 79.644 81.92v573.44c0 45.056-35.84 81.92-79.644 81.92h-39.822v81.92h-79.644zM790.756 120.32h-557.511v450.56h557.511v-450.56z" />
<glyph unicode="&#xe917;" glyph-name="cancel" data-tags="cancel" d="M512 857.6c108.633 0 212.816-43.154 289.631-119.969s119.969-180.998 119.969-289.631c0-226.216-183.384-409.6-409.6-409.6-108.633 0-212.816 43.154-289.631 119.969s-119.969 180.998-119.969 289.631c0 108.633 43.154 212.816 119.969 289.631s180.998 119.969 289.631 119.969zM512 775.68c-180.973 0-327.68-146.707-327.68-327.68 0-75.776 25.805-145.408 68.813-201.114l459.981 459.981c-55.706 43.008-125.338 68.813-201.114 68.813zM512 120.32c180.973 0 327.68 146.707 327.68 327.68 0 75.776-25.805 145.408-68.813 201.114l-459.981-459.981c55.706-43.008 125.338-68.813 201.114-68.813z" />
<glyph unicode="&#xe918;" glyph-name="change" data-tags="change" d="M921.6 590.629l-182.044 190.171v-142.629h-318.578v-95.086h318.578v-142.629l182.044 190.171zM284.444 495.543l-182.044-190.171 182.044-190.171v142.629h318.578v95.086h-318.578v142.629z" />
<glyph unicode="&#xe919;" glyph-name="check" data-tags="check" d="M357.262 287.626l-191.147 185.265-63.716-61.755 254.862-247.020 546.133 529.329-63.716 61.755z" />
<glyph unicode="&#xe91a;" glyph-name="chevron-down" data-tags="chevron-down" d="M198.656 704l313.344-313.344 313.344 313.344 96.256-96.939-409.6-409.6-409.6 409.6z" />
<glyph unicode="&#xe91b;" glyph-name="chevron-up" data-tags="chevron-up" d="M198.656 197.461l313.344 313.344 313.344-313.344 96.256 96.939-409.6 409.6-409.6-409.6z" />
<glyph unicode="&#xe91c;" glyph-name="circle-check" data-tags="circle-check" d="M430.080 243.2l-204.8 204.8 57.754 58.163 147.046-147.046 310.886 310.886 57.754-58.163-368.64-368.64zM512 857.6c-226.216 0-409.6-183.384-409.6-409.6 0-108.633 43.154-212.816 119.969-289.631s180.998-119.969 289.631-119.969c108.633 0 212.816 43.154 289.631 119.969s119.969 180.998 119.969 289.631c0 108.633-43.154 212.816-119.969 289.631s-180.998 119.969-289.631 119.969z" />
<glyph unicode="&#xe91d;" glyph-name="circle-cross" data-tags="circle-cross" d="M512 857.6c226.509 0 409.6-183.091 409.6-409.6s-183.091-409.6-409.6-409.6c-226.509 0-409.6 183.091-409.6 409.6s183.091 409.6 409.6 409.6zM659.046 652.8l-147.046-147.046-147.046 147.046-57.754-57.754 147.046-147.046-147.046-147.046 57.754-57.754 147.046 147.046 147.046-147.046 57.754 57.754-147.046 147.046 147.046 147.046-57.754 57.754z" />
<glyph unicode="&#xe91e;" glyph-name="circle-exclamation" data-tags="circle-exclamation" d="M512 857.6c-225.28 0-409.6-184.32-409.6-409.6s184.32-409.6 409.6-409.6c225.28 0 409.6 184.32 409.6 409.6s-184.32 409.6-409.6 409.6v0zM552.96 243.2h-81.92v81.92h81.92v-81.92zM552.96 407.040h-81.92v245.76h81.92v-245.76z" />
<glyph unicode="&#xe91f;" glyph-name="close" data-tags="close" d="M870.4 734.72l-71.68 71.68-286.72-286.72-286.72 286.72-71.68-71.68 286.72-286.72-286.72-286.72 71.68-71.68 286.72 286.72 286.72-286.72 71.68 71.68-286.72 286.72z" />
<glyph unicode="&#xe920;" glyph-name="cluster" data-tags="cluster" d="M547.84 232.96h35.84c19.794 0 35.84-16.046 35.84-35.84h250.88v-71.68h-250.88c0-19.794-16.046-35.84-35.84-35.84h-143.36c-19.794 0-35.84 16.046-35.84 35.84h-250.88v71.68h250.88c0 19.794 16.046 35.84 35.84 35.84h35.84v71.68h-250.88c-19.794 0-35.84 16.046-35.84 35.84v143.36c0 19.794 16.046 35.84 35.84 35.84h573.44c19.794 0 35.84-16.046 35.84-35.84v-143.36c0-19.794-16.046-35.84-35.84-35.84h-250.88v-71.68zM225.28 806.4h573.44c19.794 0 35.84-16.046 35.84-35.84v-143.36c0-19.794-16.046-35.84-35.84-35.84h-573.44c-19.794 0-35.84 16.046-35.84 35.84v143.36c0 19.794 16.046 35.84 35.84 35.84zM404.48 663.040h35.84v71.68h-35.84v-71.68zM404.48 376.32h35.84v71.68h-35.84v-71.68zM261.12 734.72v-71.68h71.68v71.68h-71.68zM261.12 448v-71.68h71.68v71.68h-71.68z" />
<glyph unicode="&#xe921;" glyph-name="code" data-tags="code" d="M329.956 857.6c-50.27 0-91.022-40.752-91.022-91.022v-182.044c0-50.27-40.752-91.022-91.022-91.022h-45.511v-91.022h45.511c50.27 0 91.022-40.752 91.022-91.022v-182.044c0-50.27 40.752-91.022 91.022-91.022h91.022v91.022h-91.022v227.556c0 50.27-40.752 91.022-91.022 91.022 50.27 0 91.022 40.752 91.022 91.022v227.556h91.022v91.022h-91.022zM694.044 857.6c50.27 0 91.022-40.752 91.022-91.022v-182.044c0-50.27 40.752-91.022 91.022-91.022h45.511v-91.022h-45.511c-50.27 0-91.022-40.752-91.022-91.022v-182.044c0-50.27-40.752-91.022-91.022-91.022h-91.022v91.022h91.022v227.556c0 50.27 40.752 91.022 91.022 91.022-50.27 0-91.022 40.752-91.022 91.022v227.556h-91.022v91.022h91.022z" />
<glyph unicode="&#xe922;" glyph-name="column" data-tags="column" d="M143.36 857.6v-573.44h163.84v573.44h-163.84zM430.080 857.6v-819.2h163.84v819.2h-163.84zM716.8 857.6v-327.68h163.84v327.68h-163.84z" />
<glyph unicode="&#xe923;" glyph-name="comment" data-tags="comment" d="M921.6 775.68c0 45.466-36.864 81.92-81.92 81.92h-655.36c-45.243 0-81.92-36.677-81.92-81.92v-491.52c0-45.243 36.677-81.92 81.92-81.92h573.44l163.84-163.84v737.28z" />
<glyph unicode="&#xe924;" glyph-name="compare" data-tags="compare" d="M770.844 783.127h-184.889v-74.473h184.889v-484.073l-184.889 223.418v-335.127h184.889c40.845 0 73.956 33.343 73.956 74.473v521.309c0 41.332-33.28 74.473-73.956 74.473zM438.044 224.582h-184.889l184.889 223.418v-223.418zM438.044 783.127h-184.889c-41.045 0-73.956-33.14-73.956-74.473v-521.309c0-41.13 33.111-74.473 73.956-74.473h184.889v-74.473h73.956v819.2h-73.956v-74.473z" />
<glyph unicode="&#xe925;" glyph-name="config" data-tags="config" d="M750.933 448c0-10.468-0.91-20.935-2.276-30.948l67.356-52.793c5.916-5.006 7.737-13.198 3.641-20.48l-63.716-110.137c-4.096-6.827-12.288-9.557-19.57-6.827l-79.189 31.858c-16.384-12.743-34.588-23.211-54.158-31.403l-11.378-84.196c-1.365-7.737-8.192-13.653-15.929-13.653h-127.431c-7.737 0-14.564 5.916-15.929 13.653l-11.378 84.196c-20.025 8.192-37.774 18.66-54.158 31.403l-79.189-31.858c-7.282-2.731-15.474 0-19.57 6.827l-63.716 110.137c-4.096 7.282-2.276 15.474 3.641 20.48l67.356 52.793c-1.365 10.012-2.276 20.48-2.276 30.948s0.91 20.935 2.276 30.948l-67.356 52.793c-5.916 5.006-7.737 13.653-3.641 20.48l63.716 110.137c4.096 7.282 12.288 10.012 19.57 7.282l79.189-32.313c16.384 12.743 34.133 23.666 54.158 31.403l11.378 84.651c1.365 7.282 8.192 13.198 15.929 13.198h127.431c7.737 0 14.564-5.916 15.929-13.198l11.378-84.651c19.57-7.737 37.774-18.66 54.158-31.403l79.189 32.313c7.282 2.731 15.474 0 19.57-7.282l63.716-110.137c4.096-6.827 2.276-15.474-3.641-20.48l-67.356-52.793c1.365-10.012 2.276-20.48 2.276-30.948zM830.578 857.6h-637.156c-50.517 0-91.022-40.505-91.022-91.022v-637.156c0-50.27 40.752-91.022 91.022-91.022h637.156c50.27 0 91.022 40.752 91.022 91.022v637.156c0 50.517-40.96 91.022-91.022 91.022zM512 539.022c-50.517 0-91.022-40.505-91.022-91.022 0-50.27 40.752-91.022 91.022-91.022s91.022 40.752 91.022 91.022c0 50.517-40.96 91.022-91.022 91.022z" />
<glyph unicode="&#xe926;" glyph-name="container" data-tags="container" d="M921.6 755.2v-614.4c0-28.277-22.923-51.2-51.2-51.2h-716.8c-28.277 0-51.2 22.923-51.2 51.2v614.4c0 28.277 22.923 51.2 51.2 51.2h716.8c28.277 0 51.2-22.923 51.2-51.2zM186.368 220.444h91.022v455.111h-91.022v-455.111zM374.272 220.444h91.022v455.111h-91.022v-455.111zM558.592 220.444h91.022v455.111h-91.022v-455.111zM746.496 220.444h91.022v455.111h-91.022v-455.111z" />
<glyph unicode="&#xe927;" glyph-name="dashboard" data-tags="dashboard" d="M557.511 857.6v-273.067h364.089v273.067h-364.089zM557.511 38.4h364.089v455.111h-364.089v-455.111zM102.4 38.4h364.089v273.067h-364.089v-273.067zM102.4 402.489h364.089v455.111h-364.089v-455.111z" />
<glyph unicode="&#xe928;" glyph-name="decrease" data-tags="decrease" d="M102.4 775.095l619.666-619.666h-385.609v-117.029h585.143v585.143h-117.029v-385.609l-619.666 619.666z" />
<glyph unicode="&#xe929;" glyph-name="delay" data-tags="delay" d="M512 857.6c-226.509 0-409.6-184.32-409.6-409.6 0-108.633 43.154-212.816 119.969-289.631s180.998-119.969 289.631-119.969c92.16 0 177.357 31.13 245.76 81.92v111.411c-60.211-67.994-147.866-111.411-245.76-111.411-180.973 0-327.68 146.707-327.68 327.68s146.707 327.68 327.68 327.68c137.626 0 255.181-84.787 303.514-204.8h87.245c-52.019 166.298-206.438 286.72-390.758 286.72zM471.040 652.8v-245.76l215.040-129.024 30.72 50.381-184.32 109.363v215.040h-61.44zM839.68 488.96v-286.72h81.92v286.72h-81.92zM839.68 120.32v-81.92h81.92v81.92h-81.92z" />
<glyph unicode="&#xe92a;" glyph-name="delete" data-tags="delete" d="M834.56 812.089h-161.28l-46.080 45.511h-230.4l-46.080-45.511h-161.28v-91.022h645.12v91.022zM235.52 129.422c0-50.27 41.261-91.022 92.16-91.022h368.64c50.899 0 92.16 40.752 92.16 91.022v546.133h-552.96v-546.133z" />
<glyph unicode="&#xe92b;" glyph-name="deployed" data-tags="deployed" d="M281.6 857.6h307.2l230.4-245.76v-491.52c0-45.243-34.385-81.92-76.8-81.92h-460.8c-42.415 0-76.8 36.677-76.8 81.92v655.36c0 45.466 34.176 81.92 76.8 81.92zM550.4 570.88h211.2l-211.2 225.28v-225.28zM481.28 217.6l-76.8 76.8 21.658 21.811 55.142-55.142 116.582 116.582 21.658-21.811-138.24-138.24zM512 448c-84.831 0-153.6-68.769-153.6-153.6 0-40.737 16.183-79.806 44.988-108.612s67.874-44.988 108.612-44.988c40.737 0 79.806 16.183 108.612 44.988s44.988 67.874 44.988 108.612c0 40.737-16.183 79.806-44.988 108.612s-67.874 44.988-108.612 44.988z" />
<glyph unicode="&#xe92c;" glyph-name="drag" data-tags="drag" d="M551.961 687.766v-199.805h199.805v129.873l169.834-169.834-169.834-169.834v129.873h-199.805v-199.805h129.873l-169.834-169.834-169.834 169.834h129.873v199.805h-199.805v-129.873l-169.834 169.834 169.834 169.834v-129.873h199.805v199.805h-129.873l169.834 169.834 169.834-169.834z" />
<glyph unicode="&#xe92d;" glyph-name="duplicate" data-tags="duplicate" d="M794.947 112.873h-414.989v521.309h414.989v-521.309zM794.947 708.655h-414.989c-41.671 0-75.453-33.343-75.453-74.473v-521.309c0-41.13 33.781-74.473 75.453-74.473h414.989c41.671 0 75.453 33.343 75.453 74.473v521.309c0 41.13-33.781 74.473-75.453 74.473zM681.768 857.6h-452.716c-41.671 0-75.453-33.343-75.453-74.473v-521.309h75.453v521.309h452.716v74.473z" />
<glyph unicode="&#xe92e;" glyph-name="edit" data-tags="edit" d="M908.29 673.647c17.747 17.747 17.747 47.325 0 64.162l-106.481 106.481c-16.837 17.747-46.415 17.747-64.162 0l-83.729-83.274 170.643-170.643 83.729 83.274zM102.4 209.043v-170.643h170.643l503.283 503.738-170.643 170.643-503.283-503.738z" />
<glyph unicode="&#xe92f;" glyph-name="educate" data-tags="educate" d="M512 780.8l-409.6-221.867 409.6-221.867 335.127 181.561v-255.516h74.473v295.822l-409.6 221.867zM251.345 404.366v-147.911l260.655-141.255 260.655 141.255v147.911l-260.655-141.255-260.655 141.255z" />
<glyph unicode="&#xe930;" glyph-name="export" data-tags="export" d="M179.2 38.4h665.6v96.376h-665.6v-96.376zM844.8 568.471h-190.171v289.129h-285.257v-289.129h-190.171l332.8-337.318 332.8 337.318z" />
<glyph unicode="&#xe931;" glyph-name="file-error" data-tags="file-error" d="M281.6 857.6h307.2l230.4-245.76v-491.52c0-45.243-34.385-81.92-76.8-81.92h-460.8c-42.415 0-76.8 36.677-76.8 81.92v655.36c0 45.466 34.176 81.92 76.8 81.92zM550.4 570.88h211.2l-211.2 225.28v-225.28zM530.618 272.842v75.453h-37.236v-75.453h37.236zM530.618 197.389v37.726h-37.236v-37.726h37.236zM307.2 140.8h409.6l-204.8 358.4-204.8-358.4z" />
<glyph unicode="&#xe932;" glyph-name="file-generic" data-tags="file-generic" d="M529.067 576h34.133v-76.8h-102.4v153.6h68.267v-76.8zM757.76 575.476l-86.835 80.852 51.2 47.672 97.075-90.387v-76.276h-81.92v-38.138h-122.88v76.276h143.36zM540.334 800v57.6h-37.282v-76.8h37.282v-76.8h-74.563v76.8h-74.563v76.8h-37.282v-76.8h-74.563v-38.4h-74.563v38.4c0 42.624 33.181 76.8 74.563 76.8h298.252l87.984-90.624-46.602-48-78.664 81.024zM819.2 106.667c0-37.703-34.385-68.267-76.8-68.267h-76.8v68.267h76.8v34.133h76.8v-34.133zM768 345.6h51.2v-102.4h-51.2v102.4zM512 38.4v102.4h102.4v-102.4h-102.4zM358.4 38.4v102.4h102.4v-102.4h-102.4zM273.067 38.4c-37.888 0-68.267 34.56-68.267 76.8v76.8h68.267v-76.8h34.133v-76.8h-34.133zM204.8 345.6h102.4v-102.4h-102.4v102.4zM204.8 550.4h102.4v-102.4h-102.4v102.4zM768 499.2h51.2v-102.4h-51.2v102.4zM204.8 704h102.4v-102.4h-102.4v102.4z" />
<glyph unicode="&#xe933;" glyph-name="file" data-tags="file" d="M550.4 570.88v225.28l211.2-225.28h-211.2zM281.6 857.6c-42.624 0-76.8-36.454-76.8-81.92v-655.36c0-45.243 34.385-81.92 76.8-81.92h460.8c42.415 0 76.8 36.677 76.8 81.92v491.52l-230.4 245.76h-307.2z" />
<glyph unicode="&#xe934;" glyph-name="filter" data-tags="filter" d="M601.585 448.057v-358.578c1.792-13.651-2.688-28.213-12.99-37.769-17.469-17.747-45.688-17.747-63.158 0l-90.033 91.465c-10.302 10.466-14.782 24.573-12.99 37.769v267.113h-1.344l-258.005 335.825c-15.229 19.567-11.646 48.235 7.615 63.707 8.511 6.371 17.917 10.011 27.771 10.011h627.096c9.854 0 19.261-3.64 27.771-10.011 19.261-15.472 22.844-44.14 7.615-63.707l-258.005-335.825h-1.344z" />
<glyph unicode="&#xe935;" glyph-name="flag" data-tags="flag" d="M602.795 761.224l-19.115 96.376h-430.080v-819.2h95.573v337.318h267.605l19.115-96.376h334.507v481.882z" />
<glyph unicode="&#xe936;" glyph-name="folder" data-tags="folder" d="M839.68 202.24h-655.36v409.6h655.36v-409.6zM839.68 693.76h-327.68l-81.92 81.92h-245.76c-45.466 0-81.92-36.454-81.92-81.92v-491.52c0-45.243 36.677-81.92 81.92-81.92h655.36c45.243 0 81.92 36.677 81.92 81.92v409.6c0 45.466-36.864 81.92-81.92 81.92z" />
<glyph unicode="&#xe937;" glyph-name="fullscreen-exit" data-tags="fullscreen-exit" d="M629.029 330.971h292.571v-117.029h-175.543v-175.543h-117.029v292.571zM102.4 330.971h292.571v-292.571h-117.029v175.543h-175.543v117.029zM277.943 857.6h117.029v-292.571h-292.571v117.029h175.543v175.543zM921.6 682.057v-117.029h-292.571v292.571h117.029v-175.543h175.543z" />
<glyph unicode="&#xe938;" glyph-name="fullscreen" data-tags="fullscreen" d="M102.4 857.6h292.571v-117.029h-175.543v-175.543h-117.029v292.571zM629.029 857.6h292.571v-292.571h-117.029v175.543h-175.543v117.029zM804.571 330.971h117.029v-292.571h-292.571v117.029h175.543v175.543zM394.971 155.429v-117.029h-292.571v292.571h117.029v-175.543h175.543z" />
<glyph unicode="&#xe939;" glyph-name="gate" data-tags="gate" d="M570.514 557.714h-468.114v-73.143h468.114v73.143zM570.514 704h-468.114v-73.143h468.114v73.143zM102.4 338.286h312.076v73.143h-312.076v-73.143zM863.086 502.857l58.514-54.857-273.067-256-175.543 164.571 58.514 54.857 117.029-109.714 214.552 201.143z" />
<glyph unicode="&#xe93a;" glyph-name="graph" data-tags="graph" d="M163.84 192l245.76 236.308 163.84-157.538 348.16 377.305-57.754 55.926-290.406-315.077-163.84 157.538-307.2-295.385z" />
<glyph unicode="&#xe93b;" glyph-name="grid" data-tags="grid" d="M422.68 806.4c26.908 0 44.847-17.939 44.847-44.847v-224.234c0-26.908-17.939-44.847-44.847-44.847h-224.234c-26.908 0-44.847 17.939-44.847 44.847v224.234c0 26.908 17.939 44.847 44.847 44.847h224.234zM825.553 806.4c26.908 0 44.847-17.939 44.847-44.847v-224.234c0-26.908-17.939-44.847-44.847-44.847h-224.234c-26.908 0-44.847 17.939-44.847 44.847v224.234c0 26.908 17.939 44.847 44.847 44.847h224.234zM422.68 403.527c26.908 0 44.847-17.939 44.847-44.847v-224.234c0-26.908-17.939-44.847-44.847-44.847h-224.234c-26.908 0-44.847 17.939-44.847 44.847v224.234c0 26.908 17.939 44.847 44.847 44.847h224.234zM825.553 403.527c26.908 0 44.847-17.939 44.847-44.847v-224.234c0-26.908-17.939-44.847-44.847-44.847h-224.234c-26.908 0-44.847 17.939-44.847 44.847v224.234c0 26.908 17.939 44.847 44.847 44.847h224.234z" />
<glyph unicode="&#xe93c;" glyph-name="group" data-tags="group" d="M512.058 256.195l386.618 300.703-386.618 300.703-386.618-300.703 70.021-54.556 316.597-246.147zM512.058 147.083l-317.027 246.147-69.591-54.126 386.618-300.703 386.618 300.703-70.021 54.556-316.597-246.576z" />
<glyph unicode="&#xe93d;" glyph-name="help" data-tags="help" d="M512 857.6c-225.28 0-409.6-184.32-409.6-409.6s184.32-409.6 409.6-409.6c225.28 0 409.6 184.32 409.6 409.6s-184.32 409.6-409.6 409.6v0zM552.96 161.28h-81.92v81.92h81.92v-81.92zM638.976 476.672l-36.864-36.864c-32.768-28.672-49.152-53.248-49.152-114.688h-81.92v20.48c0 45.056 16.384 86.016 49.152 114.688l49.152 53.248c16.384 12.288 24.576 32.768 24.576 57.344 0 45.056-36.864 81.92-81.92 81.92s-81.92-36.864-81.92-81.92h-81.92c0 90.112 73.728 163.84 163.84 163.84s163.84-73.728 163.84-163.84c0-36.864-16.384-69.632-36.864-94.208v0z" />
<glyph unicode="&#xe93e;" d="M238.933 806.4h546.133c18.851 0 34.133-14.587 34.133-32.582v-130.327c0-17.994-15.282-32.582-34.133-32.582h-546.133c-18.851 0-34.133 14.587-34.133 32.582v130.327c0 17.994 15.282 32.582 34.133 32.582zM238.933 285.091h546.133c18.851 0 34.133-14.587 34.133-32.582v-130.327c0-17.994-15.282-32.582-34.133-32.582h-546.133c-18.851 0-34.133 14.587-34.133 32.582v130.327c0 17.994 15.282 32.582 34.133 32.582zM409.6 676.073h34.133v65.164h-34.133v-65.164zM409.6 154.764h34.133v65.164h-34.133v-65.164zM273.067 741.236v-65.164h68.267v65.164h-68.267zM273.067 219.927v-65.164h68.267v65.164h-68.267z" />
<glyph unicode="&#xe93f;" d="M238.933 550.4h546.133c18.851 0 34.133-15.282 34.133-34.133v-136.533c0-18.851-15.282-34.133-34.133-34.133h-546.133c-18.851 0-34.133 15.282-34.133 34.133v136.533c0 18.851 15.282 34.133 34.133 34.133zM409.6 413.867h34.133v68.267h-34.133v-68.267zM273.067 482.133v-68.267h68.267v68.267h-68.267z" />
<glyph unicode="&#xe940;" glyph-name="increase" data-tags="increase" d="M102.4 120.905l619.666 619.666h-385.609v117.029h585.143v-585.143h-117.029v385.609l-619.666-619.666z" />
<glyph unicode="&#xe941;" glyph-name="info" data-tags="info" d="M552.96 570.88h-81.92v81.92h81.92v-81.92zM552.96 243.2h-81.92v245.76h81.92v-245.76zM512 857.6c-226.216 0-409.6-183.384-409.6-409.6 0-108.633 43.154-212.816 119.969-289.631s180.998-119.969 289.631-119.969c108.633 0 212.816 43.154 289.631 119.969s119.969 180.998 119.969 289.631c0 108.633-43.154 212.816-119.969 289.631s-180.998 119.969-289.631 119.969z" />
<glyph unicode="&#xe942;" d="M796.16 524.8c-26.88 130.56-142.080 230.4-284.16 230.4-111.36 0-207.36-61.44-253.44-153.6-119.040-15.36-207.36-111.36-207.36-230.4 0-126.72 103.68-230.4 230.4-230.4h499.2c107.52 0 192 84.48 192 192 0 99.84-80.64 184.32-176.64 192v0z" />
<glyph unicode="&#xe943;" d="M455.628 704h438.562c15.138 0 27.41-12.272 27.41-27.41v-109.64c0-15.138-12.272-27.41-27.41-27.41h-438.562c-15.138 0-27.41 12.272-27.41 27.41v109.64c0 15.138 12.272 27.41 27.41 27.41zM455.628 484.719h438.562c15.138 0 27.41-12.272 27.41-27.41v-109.64c0-15.138-12.272-27.41-27.41-27.41h-438.562c-15.138 0-27.41 12.272-27.41 27.41v109.64c0 15.138 12.272 27.41 27.41 27.41zM455.628 265.438h438.562c15.138 0 27.41-12.272 27.41-27.41v-109.64c0-15.138-12.272-27.41-27.41-27.41h-438.562c-15.138 0-27.41 12.272-27.41 27.41v109.64c0 15.138 12.272 27.41 27.41 27.41zM592.679 594.36h27.41v54.82h-27.41v-54.82zM592.679 375.079h27.41v54.82h-27.41v-54.82zM592.679 155.798h27.41v54.82h-27.41v-54.82zM483.038 649.18v-54.82h54.82v54.82h-54.82zM483.038 429.899v-54.82h54.82v54.82h-54.82zM483.038 210.618v-54.82h54.82v54.82h-54.82z" />
<glyph unicode="&#xe944;" glyph-name="keyboard" data-tags="keyboard" d="M798.72 528.457h-81.92v80.457h81.92v-80.457zM798.72 407.771h-81.92v80.457h81.92v-80.457zM675.84 528.457h-81.92v80.457h81.92v-80.457zM675.84 407.771h-81.92v80.457h81.92v-80.457zM675.84 246.857h-327.68v80.457h327.68v-80.457zM307.2 528.457h-81.92v80.457h81.92v-80.457zM307.2 407.771h-81.92v80.457h81.92v-80.457zM348.16 488.229h81.92v-80.457h-81.92v80.457zM348.16 608.914h81.92v-80.457h-81.92v80.457zM471.040 488.229h81.92v-80.457h-81.92v80.457zM471.040 608.914h81.92v-80.457h-81.92v80.457zM839.68 729.6h-655.36c-45.466 0-81.92-35.803-81.92-80.457v-402.286c0-44.435 36.677-80.457 81.92-80.457h655.36c45.243 0 81.92 36.022 81.92 80.457v402.286c0 44.654-36.864 80.457-81.92 80.457z" />
<glyph unicode="&#xe945;" glyph-name="list" data-tags="list" d="M343.341 755.2v-138.971c0-14.138 11.462-25.6 25.6-25.6h527.059c14.138 0 25.6 11.462 25.6 25.6v138.971c0 14.138-11.462 25.6-25.6 25.6h-527.059c-14.138 0-25.6-11.462-25.6-25.6zM368.941 115.2h527.059c14.138 0 25.6 11.462 25.6 25.6v138.971c0 14.138-11.462 25.6-25.6 25.6h-527.059c-14.138 0-25.6-11.462-25.6-25.6v-138.971c0-14.138 11.462-25.6 25.6-25.6zM368.941 352.914h527.059c14.138 0 25.6 11.462 25.6 25.6v138.971c0 14.138-11.462 25.6-25.6 25.6h-527.059c-14.138 0-25.6-11.462-25.6-25.6v-138.971c0-14.138 11.462-25.6 25.6-25.6zM128 590.629h141.553c14.138 0 25.6 11.462 25.6 25.6v138.971c0 14.138-11.462 25.6-25.6 25.6h-141.553c-14.138 0-25.6-11.462-25.6-25.6v-138.971c0-14.138 11.462-25.6 25.6-25.6zM128 115.2h141.553c14.138 0 25.6 11.462 25.6 25.6v138.971c0 14.138-11.462 25.6-25.6 25.6h-141.553c-14.138 0-25.6-11.462-25.6-25.6v-138.971c0-14.138 11.462-25.6 25.6-25.6zM128 352.914h141.553c14.138 0 25.6 11.462 25.6 25.6v138.971c0 14.138-11.462 25.6-25.6 25.6h-141.553c-14.138 0-25.6-11.462-25.6-25.6v-138.971c0-14.138 11.462-25.6 25.6-25.6z" />
<glyph unicode="&#xe946;" glyph-name="lock" data-tags="lock" d="M511.756 233.448c43.089 0 78.019 34.93 78.019 78.019 0 43.301-35.109 78.019-78.019 78.019-43.089 0-78.019-34.93-78.019-78.019s34.93-78.019 78.019-78.019zM745.813 584.533c43.089 0 78.019-34.93 78.019-78.019v-390.095c0-43.089-34.93-78.019-78.019-78.019h-468.114c-43.089 0-78.019 34.93-78.019 78.019v390.095c0 43.301 35.109 78.019 78.019 78.019h39.010v78.019c0 107.722 87.326 195.048 195.048 195.048 51.73 0 101.341-20.55 137.919-57.128s57.128-86.19 57.128-137.919v-78.019h39.010zM511.756 779.581c-64.633 0-117.029-52.395-117.029-117.029v-78.019h234.057v78.019c0 64.633-52.395 117.029-117.029 117.029z" />
<glyph unicode="&#xe947;" glyph-name="mail" data-tags="mail" d="M839.68 611.84l-327.68-204.8-327.68 204.8v81.92l327.68-204.8 327.68 204.8v-81.92zM839.68 775.68h-655.36c-45.466 0-81.92-36.454-81.92-81.92v-491.52c0-45.243 36.677-81.92 81.92-81.92h655.36c45.243 0 81.92 36.677 81.92 81.92v491.52c0 45.466-36.864 81.92-81.92 81.92z" />
<glyph unicode="&#xe948;" d="M0 960h1024v-1024h-1024v1024z" />
<glyph unicode="&#xe949;" d="M0 960h1024v-1024h-1024v1024z" />
<glyph unicode="&#xe94a;" glyph-name="minus" data-tags="minus" d="M563.2 396.8h-409.6v102.4h716.8v-102.4z" />
<glyph unicode="&#xe94b;" glyph-name="monitor-control" data-tags="monitor-control" d="M839.68 806.4h-655.36c-45.056 0-81.92-35.84-81.92-79.644v-477.867c0-43.804 36.864-79.644 81.92-79.644h163.84v-79.644h327.68v79.644h163.84c45.056 0 81.92 35.84 81.92 79.644v477.867c0 43.804-36.864 79.644-81.92 79.644v0zM839.68 248.889h-655.36v477.867h655.36v-477.867zM358.4 396.8v-51.2h102.4v51.2h-102.4zM358.4 601.6v-51.2h153.6v51.2h-153.6zM542.72 345.6v34.133h122.88v34.133h-122.88v34.133h-30.72v-102.4h30.72zM426.667 550.4v-34.133h-68.267v-34.133h68.267v-34.133h34.133v102.4h-34.133zM665.6 448v51.2h-153.6v-51.2h153.6zM563.2 550.4h34.133v34.133h68.267v34.133h-68.267v34.133h-34.133v-102.4z" />
<glyph unicode="&#xe94c;" glyph-name="monitor-deployments" data-tags="monitor-deployments" d="M337.92 469.316l59.769 59.769 53.433 10.56c68.005 92.504 198.102 138.756 245.199 138.756 0-47.097-46.252-177.194-138.756-245.199l-10.56-53.433-59.769-59.769-14.995 74.552c-29.779 0-29.779 0-44.774 14.995s-14.995 14.995-14.995 44.774l-74.552 14.995zM397.689 409.547l29.779-29.779-56.178-56.389h-29.99v29.99l56.389 56.178zM367.699 439.326l26.188-3.59-51.954-51.743v29.99l25.766 25.344zM453.656 375.967l3.59-26.188-25.344-25.766h-29.99l51.743 51.954zM553.129 566.888c-17.496 0-31.679-14.183-31.679-31.679s14.183-31.679 31.679-31.679c17.496 0 31.679 14.183 31.679 31.679s-14.183 31.679-31.679 31.679zM839.68 806.4h-655.36c-45.056 0-81.92-35.84-81.92-79.644v-477.867c0-43.804 36.864-79.644 81.92-79.644h163.84v-79.644h327.68v79.644h163.84c45.056 0 81.92 35.84 81.92 79.644v477.867c0 43.804-36.864 79.644-81.92 79.644v0zM839.68 248.889h-655.36v477.867h655.36v-477.867z" />
<glyph unicode="&#xe94d;" glyph-name="monitor" data-tags="monitor" d="M839.68 806.4h-655.36c-45.056 0-81.92-35.84-81.92-79.644v-477.867c0-43.804 36.864-79.644 81.92-79.644h163.84v-79.644h327.68v79.644h163.84c45.056 0 81.92 35.84 81.92 79.644v477.867c0 43.804-36.864 79.644-81.92 79.644v0zM839.68 248.889h-655.36v477.867h655.36v-477.867z" />
<glyph unicode="&#xe94e;" glyph-name="move-folder" data-tags="move-folder" d="M593.92 198.4v124.8h-163.84v166.4h163.84v124.8l204.8-208-204.8-208zM839.68 697.6h-327.68l-81.92 83.2h-245.76c-45.466 0-81.92-37.024-81.92-83.2v-499.2c0-45.95 36.677-83.2 81.92-83.2h655.36c45.243 0 81.92 37.25 81.92 83.2v416c0 46.176-36.864 83.2-81.92 83.2z" />
<glyph unicode="&#xe94f;" glyph-name="not-synced" data-tags="not-synced" d="M102.4 442.311c0-100.58 41.415-191.147 107.179-256.91l-107.179-107.179h273.067v273.067l-101.717-101.717c-49.607 49.38-80.327 117.419-80.327 192.74 0 118.784 76.004 219.591 182.044 257.138v95.118c-157.013-40.505-273.067-182.727-273.067-352.256zM466.489 214.756h91.022v91.022h-91.022v-91.022zM921.6 806.4h-273.067v-273.067l101.717 101.717c49.607-49.38 80.327-117.419 80.327-192.74 0-118.784-76.004-219.591-182.044-257.138v-94.891c157.013 40.277 273.067 182.5 273.067 352.028 0 100.58-41.415 191.147-107.179 256.91l107.179 107.179zM466.489 396.8h91.022v273.067h-91.022v-273.067z" />
<glyph unicode="&#xe950;" glyph-name="notarget" data-tags="notarget" d="M236.174 624.219l-108.174 108.174 48.407 48.407 305.267-305.267c7.493 8.248 18.305 13.427 30.326 13.427 22.622 0 40.96-18.338 40.96-40.96 0-12.021-5.179-22.833-13.427-30.326l295.958-295.958-48.407-48.407-98.865 98.865c-39.948-25.561-85.853-42.708-135.259-48.986v-84.787h-81.92v84.787c-148.275 18.842-265.011 135.578-283.853 283.853h-84.787v81.92h84.787c6.278 49.406 23.425 95.311 48.986 135.259zM628.683 231.71l-332.869 332.869c-12.58-23.261-21.478-48.734-25.887-75.619h78.234v-81.92h-78.643c17.203-102.4 99.123-184.32 201.523-201.114v78.234h81.92v-78.643c26.928 4.524 52.439 13.523 75.723 26.193zM382.39 656.737l-58.857 58.857c42.701 30.115 92.971 50.288 147.507 57.218v84.787h81.92v-84.787c148.275-18.842 265.011-135.578 283.853-283.853h84.787v-81.92h-84.787c-6.93-54.536-27.103-104.806-57.218-147.507l-58.935 58.935c16.58 26.631 28.171 56.604 33.413 88.573h-78.234v81.92h78.643c-17.203 102.4-99.123 184.32-201.523 201.114v-78.234h-81.92v78.643c-32.005-5.377-62.009-17.076-88.65-33.746z" />
<glyph unicode="&#xe951;" glyph-name="notification" data-tags="notification" d="M597.333 120.32c0-45.243-38.205-81.92-85.333-81.92s-85.333 36.677-85.333 81.92h170.667zM512 857.6c23.564 0 42.667-18.338 42.667-40.96v-44.237c121.173-19.661 213.333-120.832 213.333-242.483v-245.76l128-122.88h-768l128 122.88v245.76c0 121.651 92.16 222.822 213.333 242.483v44.237c0 22.622 19.103 40.96 42.667 40.96z" />
<glyph unicode="&#xe952;" glyph-name="options" data-tags="options" d="M512 243.2c56.554 0 102.4-45.846 102.4-102.4s-45.846-102.4-102.4-102.4c-56.554 0-102.4 45.846-102.4 102.4s45.846 102.4 102.4 102.4zM512 550.4c56.554 0 102.4-45.846 102.4-102.4s-45.846-102.4-102.4-102.4c-56.554 0-102.4 45.846-102.4 102.4s45.846 102.4 102.4 102.4zM512 857.6c56.554 0 102.4-45.846 102.4-102.4s-45.846-102.4-102.4-102.4c-56.554 0-102.4 45.846-102.4 102.4s45.846 102.4 102.4 102.4z" />
<glyph unicode="&#xe953;" glyph-name="parallel" data-tags="parallel" d="M214.109 374.4c48.78 0 90.112-30.544 105.379-73.6h385.024c15.267 43.056 56.599 73.6 105.379 73.6 61.695 0 111.709-49.428 111.709-110.4s-50.014-110.4-111.709-110.4c-48.78 0-90.112 30.544-105.379 73.6h-385.024c-15.267-43.056-56.599-73.6-105.379-73.6-61.695 0-111.709 49.428-111.709 110.4s50.014 110.4 111.709 110.4zM214.109 742.4c48.78 0 90.112-30.544 105.379-73.6h385.024c15.267 43.056 56.599 73.6 105.379 73.6 61.695 0 111.709-49.428 111.709-110.4s-50.014-110.4-111.709-110.4c-48.78 0-90.112 30.544-105.379 73.6h-385.024c-15.267-43.056-56.599-73.6-105.379-73.6-61.695 0-111.709 49.428-111.709 110.4s50.014 110.4 111.709 110.4z" />
<glyph unicode="&#xe954;" glyph-name="pending" data-tags="pending" d="M512 857.6c-225.28 0-409.6-184.32-409.6-409.6s184.32-409.6 409.6-409.6c225.28 0 409.6 184.32 409.6 409.6s-184.32 409.6-409.6 409.6v0zM512 120.32c-180.224 0-327.68 147.456-327.68 327.68s147.456 327.68 327.68 327.68c180.224 0 327.68-147.456 327.68-327.68s-147.456-327.68-327.68-327.68zM532.48 652.8h-61.44v-245.76l212.992-131.072 32.768 53.248-184.32 110.592v212.992z" />
<glyph unicode="&#xe955;" glyph-name="permissions" data-tags="permissions" d="M512 857.6l-332.8-148.945v-223.418c0-206.662 141.995-399.919 332.8-446.836 190.805 46.918 332.8 240.175 332.8 446.836v223.418l-332.8 148.945zM512 708.655c61.267 0 110.933-50.014 110.933-111.709s-49.667-111.709-110.933-111.709c-61.267 0-110.933 50.014-110.933 111.709s49.667 111.709 110.933 111.709zM701.696 261.818c-44.743-68.887-111.673-120.646-189.696-145.967-78.023 25.321-144.953 77.079-189.696 145.967-12.572 18.618-23.296 37.236-32.171 56.972 0 61.44 100.21 111.709 221.867 111.709s221.867-49.152 221.867-111.709c-8.875-19.735-19.598-38.353-32.171-56.972z" />
<glyph unicode="&#xe956;" glyph-name="planner" data-tags="planner" d="M102.4 734.72h327.68v122.88h81.92v-819.2h-81.92v163.84h-163.84v122.88h163.84v81.92h-245.76v122.88h245.76v81.92h-327.68v122.88zM593.92 734.72h122.88v-122.88h-122.88v122.88zM593.92 529.92h204.8v-122.88h-204.8v122.88zM593.92 325.12h327.68v-122.88h-327.68v122.88z" />
<glyph unicode="&#xe957;" glyph-name="play" data-tags="play" d="M430.080 263.68v368.64l245.76-184.32-245.76-184.32zM512 857.6c-226.216 0-409.6-183.384-409.6-409.6 0-108.633 43.154-212.816 119.969-289.631s180.998-119.969 289.631-119.969c108.633 0 212.816 43.154 289.631 119.969s119.969 180.998 119.969 289.631c0 108.633-43.154 212.816-119.969 289.631s-180.998 119.969-289.631 119.969z" />
<glyph unicode="&#xe958;" glyph-name="power" data-tags="power" d="M566.857 857.6v-460.8h-109.714v460.8h109.714zM732.8 755.2c96-73.644 163.2-191.474 163.2-324.033 0-216.022-172.8-392.767-384-392.767s-384 176.745-384 392.767c0 132.559 67.2 250.389 163.2 324.033l72-73.644c-81.6-49.096-139.2-142.378-139.2-250.389 0-162.016 129.6-294.575 288-294.575s288 132.559 288 294.575c0 108.011-57.6 201.293-134.4 255.299l67.2 68.734z" />
<glyph unicode="&#xe959;" glyph-name="project" data-tags="project" d="M430.080 832h163.84c45.243 0 81.92-36.194 81.92-80.842v-80.842h163.84c45.243 0 81.92-36.194 81.92-80.842v-444.632c0-44.648-36.677-80.842-81.92-80.842h-655.36c-45.466 0-81.92 36.379-81.92 80.842v444.632c0 44.867 36.454 80.842 81.92 80.842h163.84v80.842c0 44.867 36.454 80.842 81.92 80.842zM593.92 670.316v80.842h-163.84v-80.842h163.84z" />
<glyph unicode="&#xe95a;" glyph-name="provision-applied" data-tags="provision-applied" d="M478.336 377.444c20.721 46.657 58.367 84.13 105.144 104.628l-26.085 26.244c25.097 64.526 11.154 140.273-41.828 193.577-55.771 56.109-139.428 67.331-206.353 36.471l119.908-120.635-83.657-84.164-122.696 120.635c-33.463-67.331-19.52-151.495 36.251-207.604 52.983-53.304 128.274-67.331 192.41-42.082l26.906-27.069zM830.578 857.6c50.062 0 91.022-40.505 91.022-91.022v-637.156c0-50.27-40.752-91.022-91.022-91.022h-637.156c-50.27 0-91.022 40.752-91.022 91.022v637.156c0 50.517 40.505 91.022 91.022 91.022h637.156zM665.6 448c-84.831 0-153.6-68.769-153.6-153.6 0-40.737 16.183-79.806 44.988-108.612s67.874-44.988 108.612-44.988c40.737 0 79.806 16.183 108.612 44.988s44.988 67.874 44.988 108.612c0 40.737-16.183 79.806-44.988 108.612s-67.874 44.988-108.612 44.988zM634.88 217.6l-76.8 76.8 21.658 21.811 55.142-55.142 116.582 116.582 21.658-21.811-138.24-138.24z" />
<glyph unicode="&#xe95b;" glyph-name="provisioner" data-tags="provisioner" d="M830.578 857.6c50.062 0 91.022-40.505 91.022-91.022v-637.156c0-50.27-40.752-91.022-91.022-91.022h-637.156c-50.27 0-91.022 40.752-91.022 91.022v637.156c0 50.517 40.505 91.022 91.022 91.022h637.156zM811.154 253.018l-253.759 255.297c25.097 64.526 11.154 140.273-41.828 193.577-55.771 56.109-139.428 67.331-206.353 36.471l119.908-120.635-83.657-84.164-122.696 120.635c-33.463-67.331-19.52-151.495 36.251-207.604 52.983-53.304 128.274-67.331 192.41-42.082l253.759-255.297c11.154-11.222 27.886-11.222 39.040 0l64.137 64.526c13.943 11.222 13.943 30.86 2.789 39.276z" />
<glyph unicode="&#xe95c;" glyph-name="puzzle" data-tags="puzzle" d="M875.276 518.705h-58.514v156.038c0 43.301-35.109 78.019-78.019 78.019h-156.038v58.514c0 53.861-43.663 97.524-97.524 97.524s-97.524-43.663-97.524-97.524v-58.514h-156.038c-43.089 0-78.019-34.93-78.019-78.019v-148.236h58.514c58.514 0 105.326-46.811 105.326-105.326s-46.811-105.326-105.326-105.326h-58.514v-148.236c0-43.089 34.93-78.019 78.019-78.019h148.236v58.514c0 58.514 46.811 105.326 105.326 105.326s105.326-46.811 105.326-105.326v-58.514h148.236c43.089 0 78.019 34.93 78.019 78.019v156.038h58.514c53.861 0 97.524 43.663 97.524 97.524s-43.663 97.524-97.524 97.524z" />
<glyph unicode="&#xe95d;" glyph-name="refresh" data-tags="refresh" d="M801.28 737.28c-74.24 74.24-176.128 120.32-289.28 120.32-226.216 0-409.6-183.384-409.6-409.6s183.384-409.6 409.6-409.6c190.976 0 350.208 130.56 395.776 307.2h-106.496c-41.984-119.296-155.648-204.8-289.28-204.8-169.662 0-307.2 137.538-307.2 307.2s137.538 307.2 307.2 307.2c84.992 0 160.768-35.328 216.064-91.136l-164.864-164.864h358.4v358.4l-120.32-120.32z" />
<glyph unicode="&#xe95e;" glyph-name="release" data-tags="release" d="M611.84 618.667h183.040l-183.040 187.733v-187.733zM378.88 857.6h266.24l199.68-204.8v-409.6c0-37.703-29.8-68.267-66.56-68.267h-399.36c-36.941 0-66.56 30.72-66.56 68.267v546.133c0 37.703 29.8 68.267 66.56 68.267zM245.76 721.067v-614.4h532.48v-68.267h-532.48c-36.76 0-66.56 30.564-66.56 68.267v614.4h66.56z" />
<glyph unicode="&#xe95f;" glyph-name="remote-task" data-tags="remote-task" d="M233.244 514.774c-15.262 1.676-30.763 2.535-46.459 2.535-11.166 0-22.233-0.435-33.185-1.289v137.406c0 45.105 35.658 81.67 79.644 81.67h159.289c0 67.658 53.487 122.505 119.467 122.505s119.467-54.847 119.467-122.505h159.289c43.986 0 79.644-36.565 79.644-81.67v-530.854c0-45.105-35.658-81.67-79.644-81.67h-173.82c0.833 11.231 1.257 22.579 1.257 34.029 0 16.095-0.838 31.99-2.472 47.641h175.035v530.854h-79.644v-81.67h-398.222v81.67h-79.644v-138.652zM512 775.93c-21.993 0-39.822-18.282-39.822-40.835s17.829-40.835 39.822-40.835c21.993 0 39.822 18.282 39.822 40.835s-17.829 40.835-39.822 40.835zM153.6 449.251v-74.245c179.944 0 325.818-149.583 325.818-334.104h72.404c0 225.706-178.476 408.349-398.222 408.349zM153.6 299.509v-74.245c48.007 0 94.047-19.556 127.993-54.365s53.017-82.021 53.017-131.248h72.404c0 143.516-113.457 259.859-253.414 259.859zM153.6 149.768v-111.368h108.606c0 61.507-48.625 111.368-108.606 111.368z" />
<glyph unicode="&#xe960;" glyph-name="restore" data-tags="restore" d="M570.514 798.72c-193.899 0-351.086-157.186-351.086-351.086h-117.029l151.747-151.747 2.731-5.461 157.598 157.208h-117.029c0 150.811 122.256 273.067 273.067 273.067s273.067-122.256 273.067-273.067c0-150.811-122.256-273.067-273.067-273.067-75.288 0-143.555 30.818-192.707 80.36l-55.394-55.394c63.586-63.976 150.577-102.985 248.101-102.985 193.899 0 351.086 157.186 351.086 351.086s-157.186 351.086-351.086 351.086zM531.505 603.672v-195.048l166.961-99.084 28.087 47.202-136.533 81.14v165.79h-58.514z" />
<glyph unicode="&#xe961;" glyph-name="retry" data-tags="retry" d="M742.4 857.6h-329.175l-131.625-442.291h131.893l-112.144-376.909h39.506l381.768 442.309h-193.401z" />
<glyph unicode="&#xe962;" glyph-name="rocket" data-tags="rocket" d="M139.264 397.028l128.796 128.796 115.143 22.756c146.546 199.339 426.894 299.008 528.384 299.008 0-101.49-99.669-381.838-299.008-528.384l-22.756-115.143-128.796-128.796-32.313 160.654c-64.171 0-64.171 0-96.484 32.313s-32.313 32.313-32.313 96.484l-160.654 32.313zM268.060 268.231l64.171-64.171-121.060-121.515h-64.626v64.626l121.515 121.060zM203.435 332.402l56.434-7.737-111.957-111.502v64.626l55.524 54.613zM388.665 195.868l7.737-56.434-54.613-55.524h-64.626l111.502 111.957zM603.022 607.289c-37.703 0-68.267-30.564-68.267-68.267s30.564-68.267 68.267-68.267c37.703 0 68.267 30.564 68.267 68.267s-30.564 68.267-68.267 68.267z" />
<glyph unicode="&#xe963;" glyph-name="script" data-tags="script" d="M546.985 806.4l77.046-15.929-147.016-700.871-77.046 15.929 147.016 700.871zM810.355 448l-141.119 142.962v112.697l252.364-255.659-252.364-255.26v112.697l141.119 142.564zM102.4 448l252.364 255.659v-112.697l-141.119-142.962 141.119-142.564v-112.697l-252.364 255.26z" />
<glyph unicode="&#xe964;" glyph-name="search" data-tags="search" d="M671.289 356.978h-36.409l-13.653 13.653c45.511 50.062 72.818 118.329 72.818 191.147 0 163.84-131.982 295.822-295.822 295.822s-295.822-131.982-295.822-295.822c0-163.84 131.982-295.822 295.822-295.822 72.818 0 141.084 27.307 191.147 72.818l13.653-13.653v-36.409l227.556-227.556 68.267 68.267-227.556 227.556zM398.222 356.978c-113.778 0-204.8 91.022-204.8 204.8s91.022 204.8 204.8 204.8c113.778 0 204.8-91.022 204.8-204.8s-91.022-204.8-204.8-204.8v0z" />
<glyph unicode="&#xe965;" glyph-name="sequential" data-tags="sequential" d="M406.647 485.547c15.335 43.749 56.714 75.093 105.353 75.093s90.017-31.344 105.353-75.093h87.159c15.267 43.93 56.599 75.093 105.379 75.093 61.695 0 111.709-50.431 111.709-112.64s-50.014-112.64-111.709-112.64c-48.78 0-90.112 31.164-105.379 75.093h-87.159c-15.335-43.749-56.714-75.093-105.353-75.093s-90.017 31.344-105.353 75.093h-87.159c-15.267-43.93-56.599-75.093-105.379-75.093-61.695 0-111.709 50.431-111.709 112.64s50.014 112.64 111.709 112.64c48.78 0 90.112-31.164 105.379-75.093h87.159z" />
<glyph unicode="&#xe966;" glyph-name="server" data-tags="server" d="M238.933 806.4h546.133c18.851 0 34.133-14.587 34.133-32.582v-130.327c0-17.994-15.282-32.582-34.133-32.582h-546.133c-18.851 0-34.133 14.587-34.133 32.582v130.327c0 17.994 15.282 32.582 34.133 32.582zM238.933 285.091h546.133c18.851 0 34.133-14.587 34.133-32.582v-130.327c0-17.994-15.282-32.582-34.133-32.582h-546.133c-18.851 0-34.133 14.587-34.133 32.582v130.327c0 17.994 15.282 32.582 34.133 32.582zM409.6 676.073h34.133v65.164h-34.133v-65.164zM409.6 154.764h34.133v65.164h-34.133v-65.164zM273.067 741.236v-65.164h68.267v65.164h-68.267zM273.067 219.927v-65.164h68.267v65.164h-68.267zM238.933 550.4h546.133c18.851 0 34.133-15.282 34.133-34.133v-136.533c0-18.851-15.282-34.133-34.133-34.133h-546.133c-18.851 0-34.133 15.282-34.133 34.133v136.533c0 18.851 15.282 34.133 34.133 34.133zM409.6 413.867h34.133v68.267h-34.133v-68.267zM273.067 482.133v-68.267h68.267v68.267h-68.267z" />
<glyph unicode="&#xe967;" glyph-name="settings" data-tags="settings" d="M804.423 407.040c0 12.288 4.096 24.576 4.096 40.96s0 28.672-4.096 40.96l86.016 69.632c8.192 8.192 8.192 16.384 4.096 24.576l-81.92 143.36c-4.096 4.096-12.288 8.192-24.576 4.096l-102.4-40.96c-20.48 16.384-45.056 28.672-69.632 40.96l-16.384 106.496c4.096 12.288-8.192 20.48-16.384 20.48h-163.84c-8.192 0-20.48-8.192-20.48-16.384l-16.384-110.592c-24.576-8.192-45.056-24.576-69.632-40.96l-98.304 40.96c-12.288 4.096-20.48 0-28.672-8.192l-81.92-143.36c-4.096-4.096 0-16.384 8.192-24.576l86.016-65.536c0-12.288-4.096-24.576-4.096-40.96s0-28.672 4.096-40.96l-86.016-69.632c-8.192-8.192-8.192-16.384-4.096-24.576l81.92-143.36c4.096-4.096 12.288-8.192 24.576-4.096l102.4 40.96c20.48-16.384 45.056-28.672 69.632-40.96l16.384-106.496c0-8.192 8.192-16.384 20.48-16.384h163.84c8.192 0 20.48 8.192 20.48 16.384l16.384 106.496c24.576 12.288 49.152 24.576 69.632 40.96l102.4-40.96c8.192-4.096 20.48 0 24.576 8.192l81.92 143.36c4.096 8.192 4.096 20.48-4.096 24.576l-94.208 65.536zM501.319 304.64c-77.824 0-143.36 65.536-143.36 143.36s65.536 143.36 143.36 143.36c77.824 0 143.36-65.536 143.36-143.36s-65.536-143.36-143.36-143.36v0z" />
<glyph unicode="&#xe968;" glyph-name="shared-config" data-tags="shared-config" d="M438.409 403.778l-19.904-33.481c-16.509-27.171-9.37-62.278 15.673-81.509l26.355-19.806-26.287-20.116c-17.888-13.737-26.656-35.503-24.16-56.865h-307.686v91.429c0 85.211 173.894 128 260.655 128 21.189 0 47.574-2.552 75.355-7.651zM586.068 512.865c-22.619 20.077-36.832 49.119-36.832 81.42 0 60.594 50.014 109.714 111.709 109.714s111.709-49.121 111.709-109.714c0-17.247-4.052-33.565-11.272-48.086-7.090 2.731-14.749 4.2-22.679 4.2h-94.745c-25.367 0-47.962-15.030-57.889-37.535zM363.055 484.571c-61.695 0-111.709 49.121-111.709 109.714s50.014 109.714 111.709 109.714c61.695 0 111.709-49.121 111.709-109.714s-50.014-109.714-111.709-109.714zM691.2 192c-42.415 0-76.8 34.385-76.8 76.8s34.385 76.8 76.8 76.8c42.415 0 76.8-34.385 76.8-76.8s-34.385-76.8-76.8-76.8zM867.242 246.451c0.947 7.373 1.658 14.746 1.658 22.349s-0.711 15.206-1.658 23.040l49.978 37.555c4.5 3.456 5.685 9.677 2.842 14.746l-47.373 79.718c-2.842 5.069-9.238 7.142-14.449 5.069l-58.979-23.040c-12.317 8.986-25.108 16.819-40.030 22.579l-8.764 61.056c-0.947 5.53-5.922 9.677-11.843 9.677h-94.745c-5.922 0-10.896-4.147-11.843-9.677l-8.764-61.056c-14.922-5.76-27.713-13.594-40.030-22.579l-58.979 23.040c-5.211 2.074-11.606 0-14.449-5.069l-47.373-79.718c-3.079-5.069-1.658-11.29 2.842-14.746l49.978-37.555c-0.947-7.834-1.658-15.437-1.658-23.040s0.711-14.976 1.658-22.349l-49.978-38.246c-4.5-3.456-5.922-9.677-2.842-14.746l47.373-79.718c2.842-5.069 9.238-6.912 14.449-5.069l58.979 23.27c12.317-9.216 25.108-17.050 40.030-22.81l8.764-61.056c0.947-5.53 5.922-9.677 11.843-9.677h94.745c5.922 0 10.896 4.147 11.843 9.677l8.764 61.056c14.922 5.99 27.713 13.594 40.030 22.81l58.979-23.27c5.211-1.843 11.606 0 14.449 5.069l47.373 79.718c2.842 5.069 1.658 11.29-2.842 14.746l-49.978 38.246z" />
<glyph unicode="&#xe969;" glyph-name="show-more" data-tags="show-more" d="M153.6 705.42l75.38 75.38 320.768-320.768-320.768-320.768-75.38 75.38 244.853 245.388-244.853 245.388zM474.368 705.42l75.38 75.38 320.768-320.768-320.768-320.768-75.38 75.38 244.853 245.388-244.853 245.388z" />
<glyph unicode="&#xe96a;" glyph-name="sort-asc" data-tags="sort-asc" d="M204.8 550.4l307.2 307.2 307.2-307.2z" />
<glyph unicode="&#xe96b;" glyph-name="sort-desc" data-tags="sort-desc" d="M204.8 49.985l307.2 330.99 307.2-330.99z" />
<glyph unicode="&#xe96c;" glyph-name="sort" data-tags="sort" d="M204.8 526.61l307.2 330.99 307.2-330.99h-614.4zM819.2 380.975l-307.2-330.99-307.2 330.99h614.4z" />
<glyph unicode="&#xe96d;" glyph-name="speedometer" data-tags="speedometer" d="M512 273.92c-67.865 0-122.88 55.015-122.88 122.88 0 45.875 24.986 86.016 61.44 106.906l397.722 230.195-226.509-392.397c-20.48-40.141-61.85-67.584-109.773-67.584zM512 806.4c74.138 0 143.36-20.48 203.571-54.067l-86.016-49.562c-35.635 13.926-76.595 21.709-117.555 21.709-180.973 0-327.68-146.707-327.68-327.68 0-90.522 36.454-172.442 95.846-231.424h0.41c15.974-15.974 15.974-41.779 0-57.754s-42.189-15.974-58.163-0.41c-74.138 74.138-120.013 176.538-120.013 289.587 0 226.216 183.384 409.6 409.6 409.6zM921.6 396.8c0-113.050-45.875-215.45-120.013-289.587-15.974-15.565-41.779-15.565-57.754 0.41s-15.974 41.779 0 57.754c59.392 59.392 95.846 140.902 95.846 231.424 0 40.96-7.782 81.92-22.118 118.784l49.562 86.016c33.997-61.44 54.477-130.253 54.477-204.8z" />
<glyph unicode="&#xe96e;" glyph-name="star" data-tags="star" d="M512 211.661l253.133-152.781-67.174 287.949 223.642 193.741-294.502 25.395-115.098 271.155-115.098-271.155-294.502-25.395 223.232-193.741-66.765-287.949z" />
<glyph unicode="&#xe96f;" glyph-name="sync" data-tags="sync" d="M502.691 745.891v111.709l-148.945-148.945 148.945-148.945v111.709c123.252 0 223.418-100.166 223.418-223.418 0-37.609-9.309-73.356-26.065-104.262l54.365-54.365c29.044 45.801 46.173 100.166 46.173 158.627 0 164.585-133.306 297.891-297.891 297.891zM502.691 224.582c-123.252 0-223.418 100.166-223.418 223.418 0 37.609 9.309 73.356 26.065 104.262l-54.365 54.365c-29.044-45.801-46.173-100.166-46.173-158.627 0-164.585 133.306-297.891 297.891-297.891v-111.709l148.945 148.945-148.945 148.945v-111.709z" />
<glyph unicode="&#xe970;" glyph-name="table" data-tags="table" d="M184.32 832h655.36c45.243 0 81.92-36.194 81.92-80.842v-606.316c0-44.648-36.677-80.842-81.92-80.842h-655.36c-45.243 0-81.92 36.194-81.92 80.842v606.316c0 44.648 36.677 80.842 81.92 80.842zM184.32 670.316v-121.263h163.84v121.263h-163.84zM430.080 670.316v-121.263h163.84v121.263h-163.84zM839.68 549.053v121.263h-163.84v-121.263h163.84zM184.32 468.211v-121.263h163.84v121.263h-163.84zM184.32 144.842h163.84v121.263h-163.84v-121.263zM430.080 468.211v-121.263h163.84v121.263h-163.84zM430.080 144.842h163.84v121.263h-163.84v-121.263zM839.68 144.842v121.263h-163.84v-121.263h163.84zM839.68 468.211h-163.84v-121.263h163.84v121.263z" />
<glyph unicode="&#xe971;" glyph-name="tag" data-tags="tag" d="M245.76 652.8c-33.932 0-61.44 27.508-61.44 61.44s27.508 61.44 61.44 61.44c33.932 0 61.44-27.508 61.44-61.44s-27.508-61.44-61.44-61.44zM897.434 465.203l-368.64 368.64c-14.746 14.746-35.226 23.757-57.754 23.757h-286.72c-45.466 0-81.92-36.454-81.92-81.92v-286.72c0-22.528 9.011-43.008 24.166-57.754l368.23-368.64c15.155-14.746 35.635-24.166 58.163-24.166s43.008 9.421 57.754 24.166l286.72 286.72c15.155 14.746 24.166 35.226 24.166 57.754 0 22.938-9.421 43.418-24.166 58.163z" />
<glyph unicode="&#xe972;" glyph-name="target" data-tags="target" d="M471.040 857.6v-84.787c-148.275-18.842-265.011-135.578-283.853-283.853h-84.787v-81.92h84.787c18.842-148.275 135.578-265.011 283.853-283.853v-84.787h81.92v84.787c148.275 18.842 265.011 135.578 283.853 283.853h84.787v81.92h-84.787c-18.842 148.275-135.578 265.011-283.853 283.853v84.787h-81.92zM471.040 690.483v-78.643h81.92v78.234c102.4-16.794 184.32-98.714 201.523-201.114h-78.643v-81.92h78.234c-16.794-102.4-98.714-184.32-201.114-201.523v78.643h-81.92v-78.234c-102.4 16.794-184.32 98.714-201.523 201.114h78.643v81.92h-78.234c16.794 102.4 98.714 184.32 201.114 201.523zM512 488.96c-22.622 0-40.96-18.338-40.96-40.96s18.338-40.96 40.96-40.96c22.622 0 40.96 18.338 40.96 40.96s-18.338 40.96-40.96 40.96z" />
<glyph unicode="&#xe973;" glyph-name="template" data-tags="template" d="M550.4 570.88h211.2l-211.2 225.28v-225.28zM281.6 857.6h307.2l230.4-245.76v-491.52c0-45.243-34.385-81.92-76.8-81.92h-460.8c-42.624 0-76.8 36.864-76.8 81.92v655.36c0 45.466 34.176 81.92 76.8 81.92zM627.2 202.24v81.92h-345.6v-81.92h345.6zM742.4 366.080v81.92h-460.8v-81.92h460.8z" />
<glyph unicode="&#xe974;" glyph-name="thumbs" data-tags="thumbs" d="M921.6 469.134c0 41.596-33.334 74.948-74.077 74.948h-234.082l35.557 171.256c0.741 3.747 1.111 7.87 1.111 11.992 0 15.364-6.297 29.604-16.297 39.722l-39.261 39.348-243.712-246.579c-13.704-13.865-21.853-32.602-21.853-53.213v-374.74c0-41.393 33.165-74.948 74.077-74.948h333.345c30.742 0 57.039 18.737 68.15 45.718l111.856 264.192c3.333 8.619 5.185 17.613 5.185 27.356v74.948zM102.4 56.919h156.868v453.174h-156.868v-453.174z" />
<glyph unicode="&#xe975;" glyph-name="timeline" data-tags="timeline" d="M102.4 401.92h637.156v92.16h-637.156zM284.444 217.6h637.156v92.16h-637.156zM193.422 678.4v-92.16h637.156v92.16z" />
<glyph unicode="&#xe976;" glyph-name="url" data-tags="url" d="M753.664 227.226c-10.65 32.768-41.37 56.934-77.824 56.934h-40.96v122.88c0 22.622-18.338 40.96-40.96 40.96h-245.76v81.92h81.92c22.622 0 40.96 18.338 40.96 40.96v81.92h81.92c45.243 0 81.92 36.677 81.92 81.92v16.794c120.013-48.333 204.8-165.888 204.8-303.514 0-85.197-32.768-162.611-86.016-220.774zM471.040 123.187c-161.792 20.070-286.72 157.696-286.72 324.813 0 25.395 3.277 49.971 8.602 73.318l196.198-196.198v-40.96c0-45.243 36.677-81.92 81.92-81.92v-79.053zM512 857.6c-226.216 0-409.6-183.384-409.6-409.6 0-108.633 43.154-212.816 119.969-289.631s180.998-119.969 289.631-119.969c108.633 0 212.816 43.154 289.631 119.969s119.969 180.998 119.969 289.631c0 108.633-43.154 212.816-119.969 289.631s-180.998 119.969-289.631 119.969z" />
<glyph unicode="&#xe977;" glyph-name="user" data-tags="user" d="M512 806.4c98.969 0 179.2-80.231 179.2-179.2s-80.231-179.2-179.2-179.2c-98.969 0-179.2 80.231-179.2 179.2s80.231 179.2 179.2 179.2zM512 358.4c198.016 0 358.4-80.192 358.4-179.2v-89.6h-716.8v89.6c0 99.008 160.384 179.2 358.4 179.2z" />
<glyph unicode="&#xe978;" glyph-name="users" data-tags="users" d="M660.945 411.429c-10.799 0-23.087 0-36.119-1.829 43.194-30.72 73.356-71.314 73.356-126.171v-91.429h223.418v91.429c0 85.211-173.894 128-260.655 128zM363.055 411.429c-86.761 0-260.655-42.789-260.655-128v-91.429h521.309v91.429c0 85.211-173.894 128-260.655 128zM363.055 484.571c61.695 0 111.709 49.121 111.709 109.714s-50.014 109.714-111.709 109.714c-61.695 0-111.709-49.121-111.709-109.714s50.014-109.714 111.709-109.714zM660.945 484.571c61.695 0 111.709 49.121 111.709 109.714s-50.014 109.714-111.709 109.714c-61.695 0-111.709-49.121-111.709-109.714s50.014-109.714 111.709-109.714z" />
<glyph unicode="&#xe979;" glyph-name="variable" data-tags="variable" d="M342.914 559.218c70.053-18.773 145.043-48.811 145.043-137.671 0-64.142-47.833-100.124-108.011-111.076v-67.271h-92.581v67.897c-59.252 12.828-109.863 51.314-113.566 119.836h67.275c4.012-36.921 29.009-65.707 92.581-65.707 68.201 0 83.323 34.418 83.323 56.007 0 29.099-15.43 56.633-92.581 75.406-86.1 20.964-145.043 56.946-145.043 129.223 0 60.388 48.142 99.812 108.011 112.953v67.584h92.581v-68.523c64.498-15.957 96.901-65.394 99.061-119.211h-68.201c-1.852 39.111-22.219 65.707-77.151 65.707-52.154 0-83.323-23.78-83.323-57.884 0-29.724 22.528-48.811 92.581-67.271zM790.243 789.333h80.157v-75.852h-80.157v-189.63c0-41.892-35.887-75.852-80.157-75.852 44.269 0 80.157-33.96 80.157-75.852v-189.63h80.157v-75.852h-80.157c-44.269 0-80.157 33.96-80.157 75.852v151.704c0 41.892-35.887 75.852-80.157 75.852h-40.078v75.852h40.078c44.269 0 80.157 33.96 80.157 75.852v151.704c0 41.892 35.887 75.852 80.157 75.852z" />
<glyph unicode="&#xe97a;" glyph-name="version" data-tags="version" d="M184.32 726.756h122.88l81.92 79.644h245.76l81.92-79.644h122.88c45.243 0 81.92-35.658 81.92-79.644v-477.867c0-43.986-36.677-79.644-81.92-79.644h-655.36c-45.243 0-81.92 35.658-81.92 79.644v477.867c0 43.986 36.677 79.644 81.92 79.644zM512 607.289c-113.108 0-204.8-89.145-204.8-199.111s91.692-199.111 204.8-199.111c113.108 0 204.8 89.145 204.8 199.111s-91.692 199.111-204.8 199.111zM512 527.644c67.865 0 122.88-53.487 122.88-119.467s-55.015-119.467-122.88-119.467c-67.865 0-122.88 53.487-122.88 119.467s55.015 119.467 122.88 119.467z" />
<glyph unicode="&#xe97b;" glyph-name="visbility-on" data-tags="visbility-on" d="M512 577.396c-61.695 0-111.709-50.014-111.709-111.709s50.014-111.709 111.709-111.709c61.695 0 111.709 50.014 111.709 111.709s-50.014 111.709-111.709 111.709zM512 279.505c-102.825 0-186.182 83.356-186.182 186.182s83.356 186.182 186.182 186.182c102.825 0 186.182-83.356 186.182-186.182s-83.356-186.182-186.182-186.182zM512 744.96c-186.182 0-345.181-115.805-409.6-279.273 64.419-163.468 223.418-279.273 409.6-279.273s345.181 115.805 409.6 279.273c-64.419 163.468-223.418 279.273-409.6 279.273z" />
<glyph unicode="&#xe97c;" glyph-name="visibility-off" data-tags="visibility-off" d="M513.87 655.495c104.738 0 187.032-82.998 187.032-188.632 0-22.636-3.741-49.044-14.963-67.907l108.479-109.406c56.11 49.044 100.997 109.406 127.182 177.314-63.591 165.996-224.438 282.947-411.47 282.947-52.369 0-100.997-11.318-149.626-26.408l82.294-82.998c22.444 11.318 48.628 15.091 71.072 15.091v0zM225.841 670.585l14.963-15.091c-63.591-49.044-112.219-113.179-138.404-188.632 63.591-165.996 224.438-282.947 411.47-282.947 56.11 0 112.219 11.318 164.588 30.181l123.441-124.497 48.628 49.044-662.093 667.756-48.628-49.044 86.035-86.771zM345.542 549.861l56.11-56.589v-26.408c0-64.135 48.628-113.179 112.219-113.179 7.481 0 14.963 0 26.184 3.773l56.11-56.589c-26.184-15.091-52.369-22.636-82.294-22.636-104.738 0-187.032 82.998-187.032 188.632 0 30.181 7.481 56.589 18.703 82.998v0zM506.389 580.042l115.96-116.952v7.545c0 64.135-48.628 113.179-112.219 113.179 0-3.773 0-3.773-3.741-3.773v0z" />
<glyph unicode="&#xe97d;" glyph-name="warning" data-tags="warning" d="M549.236 353.684h-74.473v150.905h74.473v-150.905zM549.236 202.779h-74.473v75.453h74.473v-75.453zM102.4 89.6h819.2l-409.6 716.8-409.6-716.8z" />
<glyph unicode="&#xe97e;" glyph-name="watcher" data-tags="watcher" d="M467.2 721.067h89.6v-318.578h-89.6v318.578zM377.6 83.911c0-25.135-20.058-45.511-44.8-45.511h-134.4c-24.742 0-44.8 20.376-44.8 45.511v227.556l89.6 409.6h179.2v-318.578c0-25.135-20.058-45.511-44.8-45.511v-273.067zM422.4 766.578h-134.4v91.022h134.4v-91.022zM646.4 83.911v273.067c-24.742 0-44.8 20.376-44.8 45.511v318.578h179.2l89.6-409.6v-227.556c0-25.135-20.058-45.511-44.8-45.511h-134.4c-24.742 0-44.8 20.376-44.8 45.511zM601.6 766.578v91.022h134.4v-91.022h-134.4z" />
<glyph unicode="&#xe97f;" glyph-name="webhook" data-tags="webhook" d="M448.439 146.914c-60.947-87.342-179.918-109.283-265.912-48.523-85.576 60.76-105.613 181.857-45.501 270.043 36.318 52.743 92.255 81.013 149.445 83.545l2.087-60.338c-37.987-2.954-74.722-22.785-98.517-57.384-41.744-60.76-28.804-142.617 28.386-183.545 57.607-40.506 138.174-24.895 179.918 35.443 12.941 18.987 20.455 39.663 23.377 60.76v42.616l232.934 1.688 2.922 4.641c22.125 38.819 70.131 52.321 107.7 30.38s50.511-70.886 28.386-109.705c-22.125-38.397-70.548-51.899-108.118-29.958-17.115 9.705-29.221 25.317-34.648 43.038l-169.9-0.844c-4.592-28.27-15.445-55.696-32.561-81.857zM752.338 448.181c105.613-13.080 180.753-108.861 167.812-213.925-12.941-105.486-108.953-180.17-214.566-167.089-62.199 7.595-113.545 43.46-143.183 93.249l51.763 30.38c20.455-32.49 55.103-55.696 96.847-61.182 73.053-8.861 137.756 41.35 146.523 111.815s-42.997 135.022-115.214 143.882c-22.542 2.532-44.249-0.422-63.869-7.595l-35.483-18.565-107.7 201.267h-9.184c-44.249 1.688-78.479 38.397-77.227 82.279s38.822 78.059 82.654 76.372c43.832-2.532 78.479-38.397 77.227-82.279-0.835-18.565-7.931-35.443-19.202-48.523l79.314-148.102c25.882 8.439 54.268 11.392 83.489 8.017zM356.184 562.95c-41.744 99.157 2.505 212.659 98.934 254.009 96.847 41.35 208.722-5.485 250.466-104.642 24.629-57.806 19.62-121.098-8.349-171.731l-51.763 30.38c17.533 34.177 20.455 75.95 3.757 115.19-28.386 67.511-103.943 100-168.647 72.574-65.121-27.848-94.342-105.486-65.956-172.996 11.688-27.848 31.308-49.367 55.103-63.713l16.28-8.861-128.155-210.549c1.252-2.11 2.922-4.641 4.174-8.017 20.455-38.397 6.262-86.92-32.143-107.595-37.987-20.675-85.993-5.485-106.866 34.177-20.455 39.241-6.262 87.764 32.143 108.439 16.28 8.861 34.23 10.971 51.346 7.173l96.43 159.072c-19.62 18.144-36.318 40.928-46.754 67.089z" />
<glyph unicode="&#xe980;" glyph-name="wrench" data-tags="wrench" d="M910.872 188.024l-338.345 340.396c33.463 86.034 14.872 187.031-55.771 258.102-74.361 74.812-185.904 89.775-275.137 48.628l159.877-160.846-111.542-112.218-163.595 160.846c-44.617-89.775-26.027-201.993 48.335-276.805 70.643-71.072 171.031-89.775 256.547-56.109l338.345-340.396c14.872-14.962 37.181-14.962 52.053 0l85.516 86.034c18.59 14.962 18.59 41.147 3.718 52.369z" />
<glyph unicode="&#xe981;" glyph-name="xml" data-tags="xml" d="M550.4 570.88h211.2l-211.2 225.28v-225.28zM281.6 857.6h307.2l230.4-245.76v-491.52c0-45.243-34.385-81.92-76.8-81.92h-460.8c-42.624 0-76.8 36.864-76.8 81.92v655.36c0 45.466 34.176 81.92 76.8 81.92zM286.208 304.64l143.616-153.19 54.528 57.754-89.472 95.437 89.472 95.437-54.528 57.754-143.616-153.19zM714.752 304.64l-143.616 153.19-54.528-57.754 89.472-95.437-89.472-95.437 54.528-57.754 143.616 153.19z" />
</font>
</defs>
</svg>
